<svg id="Layer_1" data-name="Layer 1" xmlns="http://www.w3.org/2000/svg" viewBox="0 0 311.81 99.21"><defs><style>.cls-1{fill:#163b64;}</style></defs><title>pa_logo_secondary_blue</title><path class="cls-1" d="M106.06,48.52V25.29q3.14-.3,8.82-.3c3.26,0,5.49.52,6.69,1.58s1.8,3.05,1.8,6-.57,4.94-1.7,6-3.17,1.6-6.11,1.6a35.28,35.28,0,0,1-4.38-.27v8.62Zm5.12-12.29h3.6a3.87,3.87,0,0,0,2.71-.77,4.21,4.21,0,0,0,.73-2.9,4.16,4.16,0,0,0-.73-2.89,3.74,3.74,0,0,0-2.71-.75l-3.6,0Z"/><path class="cls-1" d="M145.05,48.52h-5.42l-1.75-7.1a2.9,2.9,0,0,0-.89-1.54,2.63,2.63,0,0,0-1.6-.42l-3.6,0v9.09h-5V25.29q3.12-.3,8.85-.3,4.68,0,6.63,1.48c1.3,1,2,2.78,2,5.38a6.85,6.85,0,0,1-1,4,4.66,4.66,0,0,1-3.42,1.75v.17a4.19,4.19,0,0,1,3.3,3.5Zm-13.26-13h3.7a4.1,4.1,0,0,0,2.76-.69,3.55,3.55,0,0,0,.74-2.61,3.53,3.53,0,0,0-.72-2.59,4.19,4.19,0,0,0-2.78-.68l-3.7,0Z"/><path class="cls-1" d="M151.06,27.43q2.17-2.58,7.76-2.58t7.78,2.58q2.19,2.57,2.19,9.47c0,4.61-.73,7.76-2.19,9.48s-4,2.58-7.78,2.58-6.31-.86-7.76-2.58-2.17-4.87-2.17-9.48S149.61,29.14,151.06,27.43Zm11.35,3.21c-.64-1.1-1.84-1.65-3.59-1.65s-2.95.55-3.58,1.65-1,3.19-1,6.26.32,5.17,1,6.27,1.83,1.65,3.58,1.65,3-.55,3.59-1.65,1-3.19,1-6.27S163.05,31.74,162.41,30.64Z"/><path class="cls-1" d="M192.59,25.29l-6.3,21.82a1.9,1.9,0,0,1-.65,1,1.83,1.83,0,0,1-1.16.39H179.8a1.83,1.83,0,0,1-1.17-.39,1.9,1.9,0,0,1-.65-1l-6.33-21.82h5.28l4.21,16.77c.23.89.42,1.76.57,2.59h.85c.06-.43.25-1.29.57-2.59l4.17-16.77Z"/><path class="cls-1" d="M201,48.52h-5.11V25.29H201Z"/><path class="cls-1" d="M215.62,39.73l-4.68-1.65a7.42,7.42,0,0,1-3.71-2.56,7.33,7.33,0,0,1-1.11-4.24c0-2.56.63-4.27,1.87-5.13s3.44-1.3,6.58-1.3a28.09,28.09,0,0,1,7.65.91l-.34,3.5c-1.95-.07-4.38-.1-7.27-.1a6.85,6.85,0,0,0-2.7.35c-.44.24-.67.83-.67,1.77a2.26,2.26,0,0,0,.51,1.65,5,5,0,0,0,1.92,1l4.41,1.51a7.36,7.36,0,0,1,3.8,2.58A7.44,7.44,0,0,1,223,42.26q0,3.9-1.88,5.3T214.37,49a37.94,37.94,0,0,1-8-.88l.31-3.7,7.67.17a5.78,5.78,0,0,0,2.75-.44,2,2,0,0,0,.69-1.82,2.41,2.41,0,0,0-.47-1.67A4.42,4.42,0,0,0,215.62,39.73Z"/><path class="cls-1" d="M233.09,48.52H228V25.29h5.12Z"/><path class="cls-1" d="M240.55,27.43c1.45-1.72,4-2.58,7.76-2.58s6.32.86,7.78,2.58,2.19,4.87,2.19,9.47-.73,7.76-2.19,9.48S252,49,248.31,49s-6.31-.86-7.76-2.58-2.17-4.87-2.17-9.48S239.1,29.14,240.55,27.43Zm11.35,3.21c-.64-1.1-1.84-1.65-3.59-1.65s-2.95.55-3.59,1.65-.95,3.19-.95,6.26.31,5.17.95,6.27,1.84,1.65,3.59,1.65,2.95-.55,3.59-1.65,1-3.19,1-6.27S252.54,31.74,251.9,30.64Z"/><path class="cls-1" d="M281.1,25.29V46.67a1.62,1.62,0,0,1-1.82,1.85h-3.19a1.93,1.93,0,0,1-1.22-.35A3.6,3.6,0,0,1,274,47l-6.09-12.39a20.62,20.62,0,0,1-1.42-3.6h-.37a26.38,26.38,0,0,1,.24,3.71v13.8h-4.88V27.14a1.63,1.63,0,0,1,1.85-1.85h3.13a1.89,1.89,0,0,1,1.21.35,3.54,3.54,0,0,1,.84,1.16l5.9,12c.56,1.13,1.12,2.37,1.68,3.74h.34c-.14-1.75-.21-3.05-.21-3.91V25.29Z"/><path class="cls-1" d="M117.88,71.92h-9.56L106,79.2H103l7.47-22.43a1,1,0,0,1,1.11-.81h3.1a1,1,0,0,1,1.11.81l7.47,22.43h-3.06Zm-.81-2.56-2.93-9.22q-.3-.87-.57-1.89h-.94l-.57,1.89-2.93,9.22Z"/><path class="cls-1" d="M146.73,56V78a1,1,0,0,1-1.14,1.18h-2.9a1.37,1.37,0,0,1-1.31-1l-7.84-16.46a31.94,31.94,0,0,1-1.32-3.07h-.54c.09.9.14,1.92.14,3.07V79.2h-3V57.14A1,1,0,0,1,130,56h2.8a1.36,1.36,0,0,1,1.31.95L141.75,73c.56,1.1,1.09,2.22,1.58,3.36h.58c-.07-1.21-.11-2.39-.11-3.53V56Z"/><path class="cls-1" d="M166.6,71.92H157l-2.29,7.28h-3.07l7.48-22.43a1,1,0,0,1,1.11-.81h3.1a1,1,0,0,1,1.11.81L172,79.2h-3.06Zm-.81-2.56-2.93-9.22q-.3-.87-.57-1.89h-.94l-.58,1.89-2.93,9.22Z"/><path class="cls-1" d="M179.76,56V74.48A2,2,0,0,0,182,76.7h8.38l.14,2.29c-2,.16-4.95.24-9,.24q-4.73,0-4.72-4.38V56Z"/><path class="cls-1" d="M200.53,71.05V79.2h-3V71L189.86,56H193l4.88,9.8a24.16,24.16,0,0,1,1,2.63h.24c.36-1,.71-1.85,1-2.6L205.11,56h3.14Z"/><path class="cls-1" d="M228.41,58.59H220.9V79.2h-3V58.59h-7.47V56h17.94Z"/><path class="cls-1" d="M236.8,79.2h-3V56h3Z"/><path class="cls-1" d="M259.76,76.6l.3,2.22a25.59,25.59,0,0,1-6.8.78c-3.35,0-5.7-.9-7.07-2.69s-2.06-4.91-2.06-9.33.69-7.53,2.06-9.33,3.72-2.69,7.07-2.69a26.55,26.55,0,0,1,6.33.67l-.3,2.26q-3-.3-6-.3c-2.27,0-3.83.68-4.7,2s-1.29,3.81-1.29,7.36.43,6,1.29,7.36,2.43,2,4.7,2A46.85,46.85,0,0,0,259.76,76.6Z"/><path class="cls-1" d="M274.2,69.36l-4.81-1.21A5.65,5.65,0,0,1,265.87,66a7.52,7.52,0,0,1-1.06-4.29,10.29,10.29,0,0,1,.42-3.25,3.31,3.31,0,0,1,1.45-1.85,6.23,6.23,0,0,1,2.28-.83,23.2,23.2,0,0,1,3.39-.2,36.74,36.74,0,0,1,6.9.67l-.2,2.16q-3.27-.16-6.57-.17c-1,0-1.71,0-2.19.07a3.89,3.89,0,0,0-1.38.4,1.71,1.71,0,0,0-.89,1.06,7.45,7.45,0,0,0-.22,2,4.07,4.07,0,0,0,.66,2.62,4.25,4.25,0,0,0,2.27,1.18l4.72,1.18a5.78,5.78,0,0,1,3.63,2.19,7.67,7.67,0,0,1,1.05,4.34q0,3.84-1.74,5.08c-1.15.83-3.17,1.25-6,1.25a40.11,40.11,0,0,1-7.21-.64l.21-2.19c3.77.14,6.13.19,7.1.17a6.78,6.78,0,0,0,3.72-.71q1-.7,1-3a4.1,4.1,0,0,0-.66-2.67A4.31,4.31,0,0,0,274.2,69.36Z"/><path class="cls-1" d="M58.18,32.24l14.41,8.31a.87.87,0,0,1,.42.74V57.92a.85.85,0,0,1-.42.74l-11.8,6.81a.85.85,0,0,1-1.28-.72l-.15-7.61a.84.84,0,0,1,.42-.75l5.09-2.94.06-8-7.17-4.14-7.17,4.14v3.29a.86.86,0,0,1-.46.76l-6.39,3.26A.84.84,0,0,1,42.51,52V41.29a.87.87,0,0,1,.42-.74l14.41-8.31A.84.84,0,0,1,58.18,32.24ZM51.3,70.49l0-10.64A.85.85,0,0,0,50,59.11L42.94,63a.84.84,0,0,0-.45.75l0,4.26-8.29-4.71-.06-27.19L63.73,18.74a.85.85,0,0,0,0-1.47L58.1,14a.86.86,0,0,0-.85,0L27.13,31.53a.85.85,0,0,0-.42.74l.08,34.82a.86.86,0,0,0,.43.74l14.54,8.35a.85.85,0,0,0,.86,0l8.27-5A.83.83,0,0,0,51.3,70.49Zm37-39.11L73.79,23.05a.84.84,0,0,0-.85,0l-5.67,3.4a.84.84,0,0,0,0,1.46l14,8,.06,27.2L51.69,80.41a.85.85,0,0,0,0,1.47l5.73,3.29a.86.86,0,0,0,.85,0L88.39,67.68a.84.84,0,0,0,.42-.73l-.08-34.83A.86.86,0,0,0,88.3,31.38Z"/></svg>